<?xml version="1.0" encoding="UTF-8"?>
<svg version="1.1" xmlns="http://www.w3.org/2000/svg" width="64" height="64">
<path d="M0 0 C4.44547878 3.82517941 8.12757729 7.46490274 9.00708008 13.50854492 C9.47138413 22.28084015 6.19133296 28.97921259 2.375 36.625 C1.7721376 37.87210566 1.17121303 39.12015 0.57226562 40.36914062 C-1.03034218 43.69652615 -2.66470879 47.0072139 -4.3125 50.3125 C-4.83094482 51.41102295 -5.34938965 52.5095459 -5.88354492 53.64135742 C-7.3125 56.3125 -7.3125 56.3125 -9.3125 57.375 C-11.3125 57.3125 -11.3125 57.3125 -12.71411133 56.22436523 C-14.90361881 53.60545076 -16.36833645 50.69552684 -17.88671875 47.66015625 C-18.21541458 47.00478378 -18.54411041 46.34941132 -18.88276672 45.67417908 C-19.57470247 44.28486089 -20.26286725 42.89365909 -20.94750977 41.50073242 C-21.98634785 39.40257347 -23.05598749 37.32213228 -24.12695312 35.24023438 C-28.69882252 26.10207941 -31.46696999 18.15611055 -28.25 7.9375 C-21.14609759 -1.68714197 -11.16406655 -5.68735466 0 0 Z M-18.3125 7.3125 C-21.18992578 10.48504638 -22.56745166 13.07966363 -22.875 17.3125 C-22.63189464 22.01253697 -20.65808825 24.11898395 -17.3125 27.3125 C-14.0546033 29.62455572 -11.24994642 29.78499357 -7.3125 29.3125 C-3.54793234 27.24567854 -0.26036023 25.20822045 1.6875 21.3125 C2.22074215 16.58949812 2.1542958 14.3021071 0.125 10 C-2.90701443 6.65700973 -5.06233917 5.72922028 -9.3125 4.3125 C-12.66176499 4.3125 -15.47973148 5.64059876 -18.3125 7.3125 Z " fill="#917D6F" transform="translate(42.3125,4.6875)"/>
<path d="M0 0 C0.721875 0.185625 1.44375 0.37125 2.1875 0.5625 C5.12826973 1.01995307 7.14103058 0.73516357 10 0 C10.33 1.65 10.66 3.3 11 5 C12.32 5.33 13.64 5.66 15 6 C14.566875 7.051875 14.566875 7.051875 14.125 8.125 C12.92935663 11.02553186 12.92935663 11.02553186 12.125 14.25 C11 17 11 17 9.25 17.875 C8.5075 17.91625 7.765 17.9575 7 18 C5.989375 18.061875 4.97875 18.12375 3.9375 18.1875 C1 18 1 18 -2 16 C-3.27968186 12.72970191 -4.21087678 9.41953393 -5 6 C-3.68 5.67 -2.36 5.34 -1 5 C-0.67 3.35 -0.34 1.7 0 0 Z " fill="#191411" transform="translate(27,13)"/>
<path d="M0 0 C4.79765866 2.39882933 7.565249 5.22414226 10 10 C10.9258932 15.55535919 9.38549666 18.74315494 6.484375 23.30078125 C4.17906919 25.93974974 2.08026474 26.8466951 -1.3671875 27.3359375 C-7.07568491 27.42485491 -10.6242073 27.05561275 -15 23 C-17.910372 18.634442 -18.6506249 15.20499921 -18 10 C-14.19674018 2.53975959 -8.39570848 -1.64555886 0 0 Z M-12 4 C-14.87742578 7.17254638 -16.25495166 9.76716363 -16.5625 14 C-16.31939464 18.70003697 -14.34558825 20.80648395 -11 24 C-7.7421033 26.31205572 -4.93744642 26.47249357 -1 26 C2.76456766 23.93317854 6.05213977 21.89572045 8 18 C8.53324215 13.27699812 8.4667958 10.9896071 6.4375 6.6875 C3.40548557 3.34450973 1.25016083 2.41672028 -3 1 C-6.34926499 1 -9.16723148 2.32809876 -12 4 Z " fill="#13100E" transform="translate(36,8)"/>
<path d="M0 0 C0 0.66 0 1.32 0 2 C0.99 2.33 1.98 2.66 3 3 C3.3125 5.3125 3.3125 5.3125 3 8 C0.75 9.9375 0.75 9.9375 -2 11 C-4.7485309 10.29323491 -5.70630489 9.40049334 -7.375 7.125 C-8 5 -8 5 -7.3125 2.8125 C-5.27784539 0.00273887 -3.34616189 0 0 0 Z " fill="#050404" transform="translate(54,43)"/>
<path d="M0 0 C0 2.31 0 4.62 0 7 C-2.17688554 8.32168051 -3.55217933 9.0131712 -6.125 8.9375 C-8 8 -8 8 -9.3125 5.625 C-10 3 -10 3 -9 0 C-5.52176885 -1.15941038 -3.54104422 -0.70820884 0 0 Z " fill="#2A2624" transform="translate(19,48)"/>
<path d="M0 0 C1.75 1.75 1.75 1.75 3 4 C2.6875 6.25 2.6875 6.25 2 8 C-0.64 8 -3.28 8 -6 8 C-6.75 6.25 -6.75 6.25 -7 4 C-4.66754091 1.00112403 -3.88153854 0 0 0 Z " fill="#6B5647" transform="translate(34,21)"/>
<path d="M0 0 C2.00720923 0.28674418 4.0085944 0.61866701 6 1 C6 2.98 6 4.96 6 7 C3.625 7.625 3.625 7.625 1 8 C-1 6 -1 6 -1.1875 3.4375 C-1 1 -1 1 0 0 Z " fill="#161412" transform="translate(54,19)"/>
<path d="M0 0 C1.2065625 0.0309375 1.2065625 0.0309375 2.4375 0.0625 C3.0625 2.4375 3.0625 2.4375 3.4375 5.0625 C2.7775 5.7225 2.1175 6.3825 1.4375 7.0625 C-1.1875 6.6875 -1.1875 6.6875 -3.5625 6.0625 C-3.605221 4.39638095 -3.60313832 2.72867115 -3.5625 1.0625 C-2.5625 0.0625 -2.5625 0.0625 0 0 Z " fill="#050404" transform="translate(7.5625,23.9375)"/>
<path d="M0 0 C5.625 -0.25 5.625 -0.25 9 2 C9 2.66 9 3.32 9 4 C7.35 4.66 5.7 5.32 4 6 C2.62437146 4.71034824 1.29233607 3.37310707 0 2 C0 1.34 0 0.68 0 0 Z " fill="#504A45" transform="translate(46,48)"/>
<path d="M0 0 C1.32 0.33 2.64 0.66 4 1 C4 2.32 4 3.64 4 5 C2.68 4.67 1.36 4.34 0 4 C0 2.68 0 1.36 0 0 Z " fill="#262321" transform="translate(6,25)"/>
<path d="M0 0 C0.99 0 1.98 0 3 0 C3.33 1.65 3.66 3.3 4 5 C1.03 4.505 1.03 4.505 -2 4 C-1.34 2.68 -0.68 1.36 0 0 Z " fill="#24211F" transform="translate(51,43)"/>
</svg>
